<svg aria-hidden="true" style="position: absolute; width: 0; height: 0; overflow: hidden;" version="1.1" xmlns="http://www.w3.org/2000/svg" xmlns:xlink="http://www.w3.org/1999/xlink">
<defs>
<symbol id="icon-arrow_right_2" viewBox="0 0 32 32">
<path stroke-width="2.6667" stroke-miterlimit="4" stroke-linecap="round" stroke-linejoin="round" d="M11.333 6.667c0 0 9.333 5.525 9.333 9.333 0 3.807-9.333 9.333-9.333 9.333"></path>
</symbol>
<symbol id="icon-arrow-right" viewBox="0 0 35 32">
<path d="M32 16c0 0.957-0.776 1.733-1.733 1.733h-28.533c-0.957 0-1.733-0.776-1.733-1.733v0c0-0.957 0.776-1.733 1.733-1.733h28.533c0.957 0 1.733 0.776 1.733 1.733v0z"></path>
<path d="M24.531 7.888c-1.584-1.126-3.317-2.109-4.971-2.909-0.862-0.417-1.271-1.432-0.894-2.312v0c0.377-0.88 1.398-1.291 2.261-0.877 1.844 0.883 3.802 1.986 5.612 3.273 2.32 1.649 4.51 3.678 5.854 6.035 1.378 2.415 1.882 5.22 0.673 8.162-1.17 2.847-3.839 5.553-8.183 8.129-0.801 0.475-1.663 0.948-2.589 1.419-0.853 0.434-1.888 0.059-2.295-0.807v0c-0.408-0.866-0.034-1.895 0.818-2.331 0.828-0.424 1.593-0.845 2.298-1.262 4.037-2.394 5.981-4.608 6.744-6.465 0.725-1.762 0.483-3.443-0.478-5.126-0.994-1.742-2.735-3.423-4.852-4.927z"></path>
</symbol>
<symbol id="icon-map" viewBox="0 0 25 32">
<path d="M13.829 26.628c-0.848 0.517-1.922 0.517-2.769 0-4.021-2.451-7.504-7.769-7.504-13.295 0-3.357 1.104-5.757 2.624-7.303 1.531-1.557 3.703-2.474 6.264-2.474s4.734 0.918 6.264 2.474c1.521 1.546 2.625 3.947 2.625 7.303 0 5.526-3.483 10.844-7.504 13.295zM15.68 29.664c4.975-3.033 9.209-9.447 9.209-16.331 0-8.346-5.572-13.333-12.444-13.333s-12.444 4.988-12.444 13.333c0 6.884 4.234 13.298 9.209 16.331 1.984 1.21 4.487 1.21 6.471 0z"></path>
<path d="M12.444 15.111c-1.473 0-2.667-1.194-2.667-2.667s1.194-2.667 2.667-2.667c1.473 0 2.667 1.194 2.667 2.667s-1.194 2.667-2.667 2.667zM12.444 17.778c2.945 0 5.333-2.388 5.333-5.333s-2.388-5.333-5.333-5.333c-2.945 0-5.333 2.388-5.333 5.333s2.388 5.333 5.333 5.333z"></path>
</symbol>
<symbol id="icon-search" viewBox="0 0 32 32">
<path d="M23.305 25.604c-6.392 5.094-15.328 3.684-20.061-2.158-4.568-5.64-4.283-13.777 0.673-18.926 5.121-5.321 13.171-6.031 19.007-1.666 2.091 1.563 3.652 3.552 4.669 5.96 1.023 2.421 1.334 4.941 0.979 7.539-0.354 2.586-1.386 4.891-3.065 7.042 0.136 0.089 0.281 0.153 0.385 0.257 1.846 1.838 3.685 3.683 5.531 5.521 0.438 0.436 0.655 0.943 0.526 1.554-0.258 1.217-1.706 1.686-2.635 0.851-0.436-0.391-0.836-0.821-1.25-1.235-1.516-1.515-3.032-3.032-4.548-4.547-0.063-0.060-0.129-0.116-0.211-0.192zM25.525 14.378c0.016-6.176-4.97-11.168-11.159-11.178-6.173-0.009-11.155 4.944-11.181 11.116-0.027 6.191 4.949 11.198 11.158 11.226 6.148 0.029 11.167-4.983 11.183-11.165z"></path>
</symbol>
<symbol id="icon-twitter" viewBox="0 0 39 32">
<path d="M12.386 32.009c14.863 0 22.991-12.314 22.991-22.991 0-0.35-0.007-0.698-0.023-1.045 1.578-1.14 2.949-2.564 4.031-4.184-1.448 0.643-3.006 1.076-4.64 1.272 1.668-1 2.949-2.583 3.553-4.47-1.562 0.926-3.291 1.599-5.131 1.962-1.475-1.571-3.575-2.553-5.899-2.553-4.463 0-8.082 3.619-8.082 8.080 0 0.634 0.071 1.251 0.209 1.842-6.715-0.337-12.67-3.553-16.655-8.442-0.695 1.194-1.095 2.582-1.095 4.061 0 2.803 1.427 5.278 3.596 6.726-1.325-0.041-2.571-0.405-3.66-1.011-0.002 0.034-0.002 0.068-0.002 0.103 0 3.914 2.786 7.181 6.483 7.921-0.679 0.185-1.393 0.284-2.13 0.284-0.521 0-1.027-0.052-1.519-0.146 1.028 3.21 4.012 5.546 7.549 5.612-2.766 2.168-6.25 3.459-10.036 3.459-0.652 0-1.295-0.037-1.927-0.112 3.576 2.292 7.822 3.63 12.386 3.63z"></path>
</symbol>
<symbol id="icon-union" viewBox="0 0 43 32">
<path d="M34.664 10.126l0.006 0.002c0 0-0.001-0-0.003-0.001-0.001-0-0.002-0.001-0.003-0.001zM9.884 9.959c5.927-0.368 16.969-0.368 22.896 0l0.002 0.017c0.143 1.446 0.2 3.376 0.2 6.068 0 2.659-0.056 4.589-0.196 6.048-6.052 0.241-16.852 0.241-22.906 0-0.141-1.444-0.198-3.368-0.198-6.048 0-2.692 0.058-4.622 0.2-6.068l0.002-0.017zM34.839 21.968c0 0-0.004 0.001-0.012 0.003l0.012-0.003zM7.995 21.96l0.006 0.002c-0.004-0.001-0.006-0.002-0.006-0.002zM0 16.044c0 11.022 0.889 15.11 7.822 15.644 6.4 0.356 20.621 0.356 27.021 0 6.933-0.355 7.822-4.622 7.822-15.644s-0.889-15.11-7.822-15.644c-6.4-0.533-20.621-0.533-27.021 0-6.933 0.533-7.822 4.622-7.822 15.644zM7.995 10.127c-0-0 0.002-0.001 0.006-0.002l-0.006 0.002zM22.36 19.975c-2.922 1.461-6.36-0.664-6.36-3.931s3.438-5.392 6.36-3.931c3.239 1.62 3.239 6.242 0 7.861z"></path>
</symbol>
<symbol id="icon-instagram" viewBox="0 0 32 32">
<path d="M16 2.933c4.267 0 4.8 0 6.533 0.133 4.4 0.133 6.4 2.267 6.533 6.533 0.133 1.733 0.133 2.133 0.133 6.4s0 4.8-0.133 6.4c-0.133 4.267-2.267 6.4-6.533 6.533-1.733 0.133-2.133 0.133-6.533 0.133-4.267 0-4.8 0-6.4-0.133-4.4-0.133-6.4-2.267-6.533-6.533-0.133-1.733-0.133-2.133-0.133-6.4s0-4.8 0.133-6.4c0.133-4.267 2.267-6.4 6.533-6.533 1.6-0.133 2.133-0.133 6.4-0.133zM16 0c-4.4 0-4.933 0-6.533 0.133-5.867 0.267-9.067 3.467-9.333 9.333-0.133 1.6-0.133 2.133-0.133 6.533s0 4.933 0.133 6.533c0.267 5.867 3.467 9.067 9.333 9.333 1.6 0.133 2.133 0.133 6.533 0.133s4.933 0 6.533-0.133c5.867-0.267 9.067-3.467 9.333-9.333 0.133-1.6 0.133-2.133 0.133-6.533s0-4.933-0.133-6.533c-0.267-5.867-3.467-9.067-9.333-9.333-1.6-0.133-2.133-0.133-6.533-0.133zM16 7.733c-4.533 0-8.267 3.733-8.267 8.267s3.733 8.267 8.267 8.267c4.533 0 8.267-3.733 8.267-8.267s-3.733-8.267-8.267-8.267zM16 21.333c-2.933 0-5.333-2.4-5.333-5.333s2.4-5.333 5.333-5.333c2.933 0 5.333 2.4 5.333 5.333s-2.4 5.333-5.333 5.333zM24.533 5.6c-1.067 0-1.867 0.8-1.867 1.867s0.8 1.867 1.867 1.867c1.067 0 1.867-0.8 1.867-1.867s-0.8-1.867-1.867-1.867z"></path>
</symbol>
<symbol id="icon-linkedin" viewBox="0 0 32 32">
<path d="M6.667 3.333c0 1.867-1.467 3.333-3.333 3.333s-3.333-1.467-3.333-3.333c0-1.867 1.467-3.333 3.333-3.333s3.333 1.467 3.333 3.333zM6.667 9.333h-6.667v21.333h6.667v-21.333zM17.333 9.333h-6.667v21.333h6.667v-11.2c0-6.267 8-6.8 8 0v11.2h6.667v-13.467c0-10.533-11.867-10.133-14.667-4.933v-2.933z"></path>
</symbol>
<symbol id="icon-login" viewBox="0 0 32 32">
<path stroke-width="2.6667" stroke-miterlimit="4" stroke-linecap="round" stroke-linejoin="round" d="M30.507 16.179h-17.838"></path>
<path stroke-width="2.6667" stroke-miterlimit="4" stroke-linecap="round" stroke-linejoin="round" d="M26.171 11.859l4.338 4.32-4.338 4.32"></path>
<path stroke-width="2.6667" stroke-miterlimit="4" stroke-linecap="round" stroke-linejoin="round" d="M22.461 9.526c-0.489-5.304-2.474-7.23-10.37-7.23-10.52 0-10.52 3.422-10.52 13.704s0 13.704 10.52 13.704c7.896 0 9.882-1.926 10.37-7.23"></path>
</symbol>
<symbol id="icon-facebook" viewBox="0 0 16 32">
<path d="M4 10.667h-4v5.333h4v16h6.667v-16h4.8l0.533-5.333h-5.333v-2.267c0-1.2 0.267-1.733 1.467-1.733h3.867v-6.667h-5.067c-4.8 0-6.933 2.133-6.933 6.133v4.533z"></path>
</symbol>
<symbol id="icon-arrow_show_more" viewBox="0 0 32 32">
<path d="M5.333 15.634c0-0.506 0.376-0.925 0.864-0.991l0.136-0.009h20c0.552 0 1 0.448 1 1 0 0.506-0.376 0.925-0.864 0.991l-0.136 0.009h-20c-0.552 0-1-0.448-1-1z"></path>
<path d="M17.561 8.31c-0.391-0.39-0.393-1.023-0.003-1.414 0.354-0.356 0.91-0.389 1.302-0.1l0.112 0.097 8.067 8.032c0.357 0.355 0.389 0.913 0.097 1.305l-0.097 0.112-8.067 8.033c-0.391 0.39-1.024 0.388-1.414-0.003-0.354-0.356-0.385-0.911-0.094-1.302l0.097-0.112 7.355-7.325-7.355-7.323z"></path>
</symbol>
<symbol id="icon-phone" viewBox="0 0 32 32">
<path stroke-width="2.4" stroke-miterlimit="4" stroke-linecap="round" stroke-linejoin="round" d="M19.137 3.667c4.935 0.548 8.833 4.441 9.388 9.376"></path>
<path stroke-width="2.4" stroke-miterlimit="4" stroke-linecap="round" stroke-linejoin="round" d="M19.137 8.391c2.361 0.459 4.207 2.305 4.667 4.667"></path>
<path stroke-width="2.4" stroke-miterlimit="4" stroke-linecap="round" stroke-linejoin="round" d="M10.267 21.732c-9.197-9.198-7.889-13.41-6.92-14.768 0.125-0.219 3.195-4.815 6.485-2.119 8.168 6.727-2.173 5.776 4.686 12.636 6.86 6.859 5.908-3.482 12.635 4.685 2.696 3.292-1.9 6.362-2.117 6.485-1.357 0.971-5.571 2.279-14.77-6.92z"></path>
</symbol>
<symbol id="icon-heart" viewBox="0 0 32 32">
<path d="M16 30.22c-0.456 0-0.895-0.165-1.237-0.465-1.293-1.13-2.539-2.193-3.639-3.13l-0.006-0.005c-3.224-2.747-6.008-5.12-7.945-7.457-2.165-2.613-3.174-5.090-3.174-7.796 0-2.629 0.902-5.055 2.539-6.831 1.657-1.797 3.929-2.786 6.401-2.786 1.847 0 3.539 0.584 5.028 1.736 0.751 0.581 1.433 1.293 2.033 2.123 0.6-0.83 1.281-1.541 2.033-2.123 1.489-1.152 3.181-1.736 5.028-1.736 2.471 0 4.744 0.99 6.401 2.786 1.637 1.776 2.538 4.201 2.538 6.831 0 2.706-1.008 5.184-3.174 7.796-1.937 2.337-4.721 4.71-7.944 7.457-1.102 0.939-2.35 2.002-3.646 3.136-0.342 0.299-0.781 0.464-1.237 0.464zM8.939 3.624c-1.942 0-3.725 0.775-5.023 2.182-1.317 1.428-2.042 3.403-2.042 5.56 0 2.276 0.846 4.312 2.743 6.6 1.833 2.212 4.56 4.536 7.717 7.227l0.006 0.005c1.104 0.941 2.355 2.007 3.657 3.146 1.31-1.141 2.563-2.209 3.669-3.151 3.157-2.691 5.884-5.014 7.717-7.226 1.896-2.289 2.742-4.324 2.742-6.6 0-2.157-0.725-4.132-2.042-5.56-1.297-1.407-3.081-2.182-5.023-2.182-1.422 0-2.728 0.452-3.881 1.344-1.028 0.795-1.744 1.8-2.163 2.503-0.216 0.362-0.596 0.577-1.016 0.577s-0.801-0.216-1.016-0.577c-0.419-0.703-1.135-1.708-2.163-2.503-1.153-0.892-2.459-1.344-3.881-1.344z"></path>
</symbol>
<symbol id="icon-email" viewBox="0 0 32 32">
<path stroke-width="2.4" stroke-miterlimit="4" stroke-linecap="round" stroke-linejoin="round" d="M23.393 12.025c0 0-4.28 5.137-7.411 5.137-3.129 0-7.457-5.137-7.457-5.137"></path>
<path stroke-width="2.4" stroke-miterlimit="4" stroke-linecap="round" stroke-linejoin="round" d="M3.269 15.958c0-9.117 3.175-12.156 12.698-12.156s12.698 3.038 12.698 12.156c0 9.116-3.175 12.156-12.698 12.156s-12.698-3.040-12.698-12.156z"></path>
</symbol>
<symbol id="icon-basket" viewBox="0 0 32 32">
<path d="M22.87 26.999h-9.685c-4.135 0-7.499-3.364-7.499-7.499v-7.686c0-3.844-1.916-7.401-5.125-9.517-0.576-0.38-0.735-1.155-0.355-1.731s1.155-0.736 1.731-0.355c1.832 1.208 3.318 2.801 4.381 4.635 0.23 0.257 2.081 2.22 5.117 2.22h14.392c3.926-0.073 7 3.867 5.973 7.657l-1.657 6.603c-0.838 3.341-3.829 5.674-7.273 5.674zM7.871 8.859c0.208 0.96 0.315 1.95 0.315 2.956v7.686c0 2.756 2.243 4.999 4.999 4.999h9.685c2.296 0 4.29-1.556 4.849-3.783l1.657-6.603c0.61-2.252-1.216-4.593-3.549-4.549h-14.392c-1.373 0-2.568-0.296-3.565-0.706zM12.56 30.436c0-0.863-0.699-1.562-1.562-1.562-2.073 0.083-2.071 3.043 0 3.124 0.863 0 1.562-0.7 1.562-1.562zM24.996 30.436c0-0.863-0.699-1.562-1.562-1.562-2.073 0.083-2.071 3.043 0 3.124 0.863 0 1.562-0.7 1.562-1.562zM27.077 13.314c0-0.69-0.56-1.25-1.25-1.25h-13.892c-1.658 0.066-1.657 2.434 0 2.5h13.892c0.69 0 1.25-0.56 1.25-1.25z"></path>
</symbol>
<symbol id="icon-enter" viewBox="0 0 32 32">
<path d="M12 16h-10v-4h10v-4l6 6-6 6zM32 0v26l-12 6v-6h-12v-8h2v6h10v-18l8-4h-18v8h-2v-10z"></path>
</symbol>
<symbol id="icon-envelop" viewBox="0 0 32 32">
<path d="M29 4h-26c-1.65 0-3 1.35-3 3v20c0 1.65 1.35 3 3 3h26c1.65 0 3-1.35 3-3v-20c0-1.65-1.35-3-3-3zM12.461 17.199l-8.461 6.59v-15.676l8.461 9.086zM5.512 8h20.976l-10.488 7.875-10.488-7.875zM12.79 17.553l3.21 3.447 3.21-3.447 6.58 8.447h-19.579l6.58-8.447zM19.539 17.199l8.461-9.086v15.676l-8.461-6.59z"></path>
</symbol>
</defs>
</svg>
